<?xml version="1.0" encoding="utf-8"?>
<!-- Generator: Adobe Illustrator 16.0.4, SVG Export Plug-In . SVG Version: 6.00 Build 0)  -->
<!DOCTYPE svg PUBLIC "-//W3C//DTD SVG 1.1//EN" "http://www.w3.org/Graphics/SVG/1.1/DTD/svg11.dtd">
<svg version="1.1" id="Layer_1" xmlns="http://www.w3.org/2000/svg" xmlns:xlink="http://www.w3.org/1999/xlink" x="0px" y="0px"
	 width="410px" height="64px" viewBox="0 0 410 64" enable-background="new 0 0 410 64" xml:space="preserve">
<g>
	<g>
		<path fill="#FFFFFF" d="M13.32,15.01c6.36,0,13.87,0.92,17.01,1.96v46.45h-9.84V45.48c-1.95,1.7-4.47,2.34-7.17,2.34
			c-9.18,0-11.89-5.67-11.89-16.68C1.43,19.62,5.82,15.01,13.32,15.01z M15.48,40.41c2.01,0,3.22-0.24,5.01-1.23V22.15h-4.92
			c-4.21,0-4.3,5.04-4.3,8.68C11.27,37.17,11.43,40.41,15.48,40.41z"/>
		<path fill="#FFFFFF" d="M34.73,15.37h9.84v21.03c0,2.88,1.08,3.78,2.83,3.78c2.86,0,4.53-0.75,6.22-2.52V15.37h9.84v31.86H55.4
			l-1.77-3.27c-2.98,1.83-4.65,3.81-9.51,3.81c-7.8,0-9.39-5.19-9.39-11.55V15.37z"/>
		<path fill="#FFFFFF" d="M82.56,15.07c11.05,0,14.71,4.02,14.71,16.68c0,11.82-3.43,15.78-14.71,15.78
			c-11.1,0-14.71-4.38-14.71-15.78C67.85,18.73,71.67,15.07,82.56,15.07z M82.56,39.93c4.1,0,4.88-0.57,4.88-8.19
			c0-8.02-0.6-9.09-4.88-9.09c-4.33,0-4.87,1.09-4.87,9.09C77.69,39.12,78.72,39.93,82.56,39.93z"/>
		<path fill="#FFFFFF" d="M100.05,17.29l4.86-1.98l1.53-8.88h8.31v8.88h6.33v7.14h-6.33v11.58c0,4.5,0.98,5.43,2.48,6.09
			c0,0,3.12,1.26,3.54,1.26v5.88h-8.07c-4.75,0-7.78-2.97-7.78-11.43V22.45h-4.86V17.29z"/>
		<path fill="#FFFFFF" d="M138.17,15.13c9.84,0,13.98,1.17,13.98,11.73c0,6.06-3.36,8.22-9.12,8.22h-8.94c0,5.11,2.46,4.9,6.96,4.9
			c4.62,0,6,0.02,10.5-0.65v6.51c-4.36,1.78-11.82,1.68-16.8,1.68c-8.1,0-10.5-4.98-10.5-16.38
			C124.25,17.65,127.97,15.13,138.17,15.13z M140.06,28.44c1.42,0,2.25-0.82,2.25-2.17c0-3.19-0.35-4-3.5-4
			c-3.58,0-4.81,0.33-4.72,6.18H140.06z"/>
		<path fill="#FFFFFF" d="M155.33,23.89c0-4.92,2.1-8.82,8.28-8.82c7.21,0,15.28,0.03,17.5,1.86v5.98h-13.99
			c-1.54,0-1.95,0.38-1.95,1.69v0.96c0,1.54,0.85,1.58,1.95,1.58h6.87c6.39,0,8.7,3.73,8.7,8.41v3.39c0,6.54-3.96,8.58-7.8,8.58
			c-7.17,0-16.05-0.04-18.24-1.95v-5.95h14.55c0.76,0,1.65-0.23,1.65-1.58v-0.96c0-1.06-0.27-1.63-1.65-1.63h-6.69
			c-5.64,0-9.18-2.62-9.18-8.8V23.89z"/>
		<path fill="#00CC00" d="M213.92,15.07c10.18,0,13.06,5.6,11.22,16.82c-1.94,11.76-5.46,15.64-15.82,15.64
			c-10.4,0-13.46-4.52-11.66-15.92C199.69,18.59,203.77,15.07,213.92,15.07z M209.46,44.07c6.75,0,10.39-1.3,12.23-12.33
			c1.84-11.17-1.1-13.23-8.19-13.23c-6.88,0-10.41,1.24-12.39,13.23C199.29,42.84,202.8,44.07,209.46,44.07z"/>
		<path fill="#00CC00" d="M234.63,15.37H237l0.48,3.72c3.98-2.16,8.02-4.26,12.88-4.26c6.36,0,9.06,4.92,8.22,10.2l-3.54,22.2h-3.45
			l3.54-22.2c0.66-4.22-1.52-6.75-5.33-6.75c-4.96,0-7.79,1.22-12.71,3.5l-4.04,25.45h-3.45L234.63,15.37z"/>
		<path fill="#FFFFFF" d="M282.89,14.89c2.7,0,6.3,0.71,8.88,1.95V0.13h9.82v47.1h-8.26l-1.6-3.09c-2.15,1.77-5.16,3.45-8.83,3.45
			c-7.53,0-10.37-5.26-10.37-16.14C272.52,20.54,274.14,14.89,282.89,14.89z M285.86,39.41c2.58,0,4.6-0.59,5.87-1.68V23.31
			c-1.49-0.76-3.58-1.06-5.87-1.06c-2.22,0-3.5,1.21-3.5,8.74C282.36,37.85,283.58,39.41,285.86,39.41z"/>
		<path fill="#FFFFFF" d="M319.86,15.13c9.84,0,13.98,1.17,13.98,11.73c0,6.06-3.36,8.22-9.12,8.22h-8.94c0,5.11,2.46,4.9,6.96,4.9
			c4.62,0,6,0.02,10.5-0.65v6.51c-4.36,1.78-11.82,1.68-16.8,1.68c-8.1,0-10.5-4.98-10.5-16.38
			C305.94,17.65,309.66,15.13,319.86,15.13z M321.75,28.44c1.42,0,2.25-0.82,2.25-2.17c0-3.19-0.34-4-3.5-4
			c-3.58,0-4.81,0.33-4.72,6.18H321.75z"/>
		<path fill="#FFFFFF" d="M346.11,15.37l5.87,20.82l6.12-20.82h10.44l-11.12,31.86h-11.19l-10.6-31.86H346.11z"/>
		<path fill="#FFFFFF" d="M370.53,39.24h38.04v8.04h-38.04V39.24z"/>
	</g>
</g>
</svg>
